<?xml version="1.0" encoding="UTF-8"?>
<svg id="_图层_2" data-name="图层 2" xmlns="http://www.w3.org/2000/svg" viewBox="0 0 376.34 377.81">
  <g id="_图层_1-2" data-name="图层 1">
    <g>
      <path d="M365.74,0H10.6C4.75,0,0,4.75,0,10.6s4.75,10.6,10.6,10.6h66.85v312.55h-27.98c-5.85,0-10.6,4.75-10.6,10.6s4.75,10.6,10.6,10.6h88.64c5.85,0,10.6-4.75,10.6-10.6s-4.75-10.6-10.6-10.6h-39.46V21.2h222.33v229.1h-47.3c-2.52,0-4.58,2.06-4.58,4.58s2.06,4.58,4.58,4.58h47.3v4.98h-26.39c-2.52,0-4.58,2.06-4.58,4.58s2.06,4.58,4.58,4.58h50.56v1.32c0,3.27,2.68,5.95,5.95,5.95h0c3.27,0,5.95-2.68,5.95-5.95v-26.73c0-3.27-2.68-5.95-5.95-5.95h0c-3.27,0-5.95,2.68-5.95,5.95v2.12h-10.62V21.2h31.21c5.85,0,10.6-4.75,10.6-10.6s-4.75-10.6-10.6-10.6ZM345.15,259.46v4.98h-10.62v-4.98h10.62Z"/>
      <path d="M183.33,259.27V48.62c0-2.15-1.76-3.91-3.91-3.91s-3.91,1.76-3.91,3.91v210.65c0,2.15,1.76,3.91,3.91,3.91s3.91-1.76,3.91-3.91Z"/>
      <rect x="195.66" y="44.71" width="7.82" height="201.75" rx="3.91" ry="3.91"/>
      <path d="M224.54,259.27V48.62c0-2.15-1.76-3.91-3.91-3.91s-3.91,1.76-3.91,3.91v210.65c0,2.15,1.76,3.91,3.91,3.91s3.91-1.76,3.91-3.91Z"/>
      <path d="M245.04,242.55V48.62c0-2.15-1.76-3.91-3.91-3.91s-3.91,1.76-3.91,3.91v193.93c0,2.15,1.76,3.91,3.91,3.91s3.91-1.76,3.91-3.91Z"/>
      <path d="M265.65,259.27V48.62c0-2.15-1.76-3.91-3.91-3.91s-3.91,1.76-3.91,3.91v210.65c0,2.15,1.76,3.91,3.91,3.91s3.91-1.76,3.91-3.91Z"/>
      <path d="M286.89,242.55V48.62c0-2.15-1.76-3.91-3.91-3.91s-3.91,1.76-3.91,3.91v193.93c0,2.15,1.76,3.91,3.91,3.91s3.91-1.76,3.91-3.91Z"/>
      <path d="M134.34,242.24c-3.27,0-5.95,2.68-5.95,5.95v26.73c0,3.27,2.68,5.95,5.95,5.95s5.95-2.68,5.95-5.95v-1.32h45.95c2.52,0,4.58-2.06,4.58-4.58s-2.06-4.58-4.58-4.58h-45.95v-4.98h23.57c2.52,0,4.58-2.06,4.58-4.58s-2.06-4.58-4.58-4.58h-23.57v-2.12c0-3.27-2.68-5.95-5.95-5.95Z"/>
      <path d="M186.32,254.88c0,2.52,2.06,4.58,4.58,4.58h18.66c2.52,0,4.58-2.06,4.58-4.58s-2.06-4.58-4.58-4.58h-18.66c-2.52,0-4.58,2.06-4.58,4.58Z"/>
      <path d="M227.28,254.88c0,2.52,2.06,4.58,4.58,4.58h18.66c2.52,0,4.58-2.06,4.58-4.58s-2.06-4.58-4.58-4.58h-18.66c-2.52,0-4.58,2.06-4.58,4.58Z"/>
      <path d="M203.47,276.88v-9.82c0-2.15-1.76-3.91-3.91-3.91s-3.91,1.76-3.91,3.91v9.82c0,2.15,1.76,3.91,3.91,3.91s3.91-1.76,3.91-3.91Z"/>
      <path d="M245.09,276.88v-9.82c0-2.15-1.76-3.91-3.91-3.91s-3.91,1.76-3.91,3.91v9.82c0,2.15,1.76,3.91,3.91,3.91s3.91-1.76,3.91-3.91Z"/>
      <path d="M286.94,289.58v-22.51c0-2.15-1.76-3.91-3.91-3.91s-3.91,1.76-3.91,3.91v22.51c0,2.15,1.76,3.91,3.91,3.91s3.91-1.76,3.91-3.91Z"/>
      <path d="M175.19,279.76v9.82c0,2.15,1.76,3.91,3.91,3.91s3.91-1.76,3.91-3.91v-9.82c0-2.15-1.76-3.91-3.91-3.91s-3.91,1.76-3.91,3.91Z"/>
      <path d="M216.72,279.76v9.82c0,2.15,1.76,3.91,3.91,3.91s3.91-1.76,3.91-3.91v-9.82c0-2.15-1.76-3.91-3.91-3.91s-3.91,1.76-3.91,3.91Z"/>
      <path d="M258.21,278.78v28.99c0,2.15,1.76,3.91,3.91,3.91s3.91-1.76,3.91-3.91v-28.99c0-2.15-1.76-3.91-3.91-3.91s-3.91,1.76-3.91,3.91Z"/>
      <path d="M206.47,269.02c0,2.52,2.06,4.58,4.58,4.58h18.66c2.52,0,4.58-2.06,4.58-4.58s-2.06-4.58-4.58-4.58h-18.66c-2.52,0-4.58,2.06-4.58,4.58Z"/>
      <path d="M248.25,269.02c0,2.52,2.06,4.58,4.58,4.58h18.66c2.52,0,4.58-2.06,4.58-4.58s-2.06-4.58-4.58-4.58h-18.66c-2.52,0-4.58,2.06-4.58,4.58Z"/>
      <path d="M213.99,287.15c0-2.52-2.06-4.58-4.58-4.58h-18.66c-2.52,0-4.58,2.06-4.58,4.58s2.06,4.58,4.58,4.58h18.66c2.52,0,4.58-2.06,4.58-4.58Z"/>
      <path d="M227.13,287.15c0,2.52,2.06,4.58,4.58,4.58h18.66c2.52,0,4.58-2.06,4.58-4.58s-2.06-4.58-4.58-4.58h-18.66c-2.52,0-4.58,2.06-4.58,4.58Z"/>
      <path d="M192.74,301.45c0-2.52-2.06-4.58-4.58-4.58h-18.66c-2.52,0-4.58,2.06-4.58,4.58s2.06,4.58,4.58,4.58h18.66c2.52,0,4.58-2.06,4.58-4.58Z"/>
      <path d="M251.47,306.03c2.52,0,4.58-2.06,4.58-4.58s-2.06-4.58-4.58-4.58h-40.2c-2.52,0-4.58,2.06-4.58,4.58s2.06,4.58,4.58,4.58h26.03c0,.06-.02.12-.02.19v67.69c0,2.15,1.76,3.91,3.91,3.91s3.91-1.76,3.91-3.91v-67.69c0-.06-.02-.12-.02-.19h6.39Z"/>
      <path d="M292.53,297.2h-18.66c-2.52,0-4.58,2.06-4.58,4.58s2.06,4.58,4.58,4.58h5.42v67.55c0,2.15,1.76,3.91,3.91,3.91s3.91-1.76,3.91-3.91v-67.55h5.42c2.52,0,4.58-2.06,4.58-4.58s-2.06-4.58-4.58-4.58Z"/>
      <path d="M195.8,298.81v9.82c0,2.15,1.76,3.91,3.91,3.91s3.91-1.76,3.91-3.91v-9.82c0-2.15-1.76-3.91-3.91-3.91s-3.91,1.76-3.91,3.91Z"/>
      <path d="M209.49,315.72h-18.66c-2.52,0-4.58,2.06-4.58,4.58s2.06,4.58,4.58,4.58h4.86c-.01.11-.03.22-.03.34v48.69c0,2.15,1.76,3.91,3.91,3.91s3.91-1.76,3.91-3.91v-48.69c0-.12-.02-.23-.03-.34h6.05c2.52,0,4.58-2.06,4.58-4.58s-2.06-4.58-4.58-4.58Z"/>
      <path d="M231.37,315.72c-2.52,0-4.58,2.06-4.58,4.58s2.06,4.58,4.58,4.58,4.58-2.06,4.58-4.58-2.06-4.58-4.58-4.58Z"/>
      <path d="M271.49,315.72h-18.66c-2.52,0-4.58,2.06-4.58,4.58s2.06,4.58,4.58,4.58h5.39c-.01.11-.03.22-.03.34v48.69c0,2.15,1.76,3.91,3.91,3.91s3.91-1.76,3.91-3.91v-48.69c0-.12-.02-.23-.03-.34h5.53c2.52,0,4.58-2.06,4.58-4.58s-2.06-4.58-4.58-4.58Z"/>
      <path d="M179.1,310.9c-2.15,0-3.91,1.76-3.91,3.91v59.09c0,2.15,1.76,3.91,3.91,3.91s3.91-1.76,3.91-3.91v-59.09c0-2.15-1.76-3.91-3.91-3.91Z"/>
      <path d="M220.38,310.9c-2.15,0-3.91,1.76-3.91,3.91v59.09c0,2.15,1.76,3.91,3.91,3.91s3.91-1.76,3.91-3.91v-59.09c0-2.15-1.76-3.91-3.91-3.91Z"/>
    </g>
  </g>
</svg>